<svg width="165" height="46" viewBox="0 0 165 46" fill="none" xmlns="http://www.w3.org/2000/svg">
<path d="M0 7.36C0 3.29519 3.32014 0 7.41573 0H157.584C161.68 0 165 3.29519 165 7.36V38.64C165 42.7048 161.68 46 157.584 46H7.41573C3.32014 46 0 42.7048 0 38.64V7.36Z" fill="#F7D47C"/>
<path d="M33.1784 15.243L33.1578 15.2309L33.11 15.2164C33.1293 15.2326 33.1532 15.2419 33.1784 15.243Z" fill="#1A1A20"/>
<path d="M33.1867 15.2395C33.1836 15.2391 33.1809 15.2384 33.1782 15.2375C33.1778 15.2394 33.1778 15.2412 33.1782 15.2431C33.1812 15.2427 33.184 15.2414 33.1867 15.2395Z" fill="#1A1A20"/>
<path d="M33.1779 15.244H33.1825V15.2413L33.1779 15.244Z" fill="#1A1A20"/>
<path d="M33.4577 17.3586L33.4923 17.3388L33.5052 17.3315L33.5169 17.319C33.4951 17.3285 33.4749 17.3419 33.4577 17.3586Z" fill="#1A1A20"/>
<path d="M33.2367 15.2898L33.2026 15.2575L33.1796 15.245C33.1922 15.2668 33.2124 15.2829 33.2367 15.2898Z" fill="#1A1A20"/>
<path d="M24.8048 35.8527C24.7777 35.8644 24.7539 35.8828 24.7357 35.9061L24.7571 35.8923C24.7717 35.8791 24.7923 35.8631 24.8048 35.8527Z" fill="#1A1A20"/>
<path d="M29.701 34.8893C29.701 34.859 29.6862 34.8645 29.6898 34.9723C29.6898 34.9636 29.6934 34.9548 29.695 34.9463C29.697 34.9272 29.6986 34.9084 29.701 34.8893Z" fill="#1A1A20"/>
<path d="M29.1961 35.8527C29.169 35.8644 29.1452 35.8828 29.127 35.9061L29.1484 35.8923C29.1629 35.8791 29.1836 35.8631 29.1961 35.8527Z" fill="#1A1A20"/>
<path d="M21.354 36.0824C21.3334 36.0647 21.3082 36.0527 21.2813 36.0484C21.3031 36.0591 21.3249 36.0696 21.3395 36.0775L21.354 36.0824Z" fill="#1A1A20"/>
<path d="M20.5782 35.3389C20.575 35.3074 20.5654 35.2771 20.5499 35.2496C20.5609 35.278 20.57 35.3074 20.5774 35.3374L20.5782 35.3389Z" fill="#1A1A20"/>
<path d="M25.7905 22.0453C24.725 22.5015 23.5158 23.0186 21.9488 23.0186C21.2932 23.0173 20.6408 22.9274 20.0093 22.7513L21.0932 33.8791C21.1315 34.3441 21.3434 34.7779 21.6868 35.0939C22.0301 35.4101 22.4797 35.5855 22.9464 35.5852C22.9464 35.5852 24.4832 35.6652 24.996 35.6652C25.5478 35.6652 27.2027 35.5852 27.2027 35.5852C27.6694 35.5852 28.1189 35.4098 28.4622 35.0939C28.8054 34.7776 29.0172 34.3441 29.0556 33.8791L30.2164 21.5824C29.6977 21.4053 29.1741 21.2875 28.5839 21.2875C27.5631 21.2871 26.7406 21.6387 25.7905 22.0453Z" fill="#964B00"/>
<path d="M16.6564 17.2979L16.6756 17.3159L16.6882 17.3234C16.6785 17.3138 16.6679 17.3052 16.6564 17.2979Z" fill="#1A1A20"/>
<path d="M35.2305 16.271L35.0675 15.4477C34.9209 14.709 34.5886 14.0111 33.8304 13.7441C33.5874 13.6587 33.3114 13.622 33.1251 13.4452C32.9388 13.2685 32.8837 12.9939 32.8407 12.7393C32.761 12.272 32.6859 11.8043 32.6041 11.3378C32.5335 10.9368 32.4775 10.4862 32.2936 10.1183C32.0543 9.62427 31.5575 9.33537 31.0634 9.14422C30.8101 9.0497 30.5517 8.96976 30.2895 8.90478C29.0552 8.57913 27.7575 8.45941 26.4877 8.39119C24.9636 8.3071 23.4354 8.33242 21.9149 8.46702C20.7832 8.56995 19.5912 8.69449 18.5158 9.08593C18.1227 9.22922 17.7177 9.40119 17.4188 9.70488C17.052 10.078 16.9323 10.6551 17.2001 11.1203C17.3904 11.4508 17.7129 11.6842 18.0548 11.8386C18.5003 12.0376 18.9655 12.189 19.4427 12.2904C20.7716 12.5841 22.148 12.6994 23.5056 12.7485C25.0102 12.8092 26.5174 12.76 28.0149 12.6012C28.3852 12.5605 28.7549 12.5117 29.1239 12.4548C29.5584 12.3881 29.8374 11.8199 29.7093 11.424C29.556 10.9507 29.1442 10.7672 28.6785 10.8386C28.6099 10.8494 28.5416 10.8593 28.473 10.8693L28.4235 10.8765C28.2658 10.8965 28.108 10.9151 27.9502 10.9324C27.6243 10.9675 27.2977 10.9962 26.9702 11.0186C26.2367 11.0696 25.5012 11.0932 24.7662 11.0944C24.0439 11.0944 23.3212 11.074 22.6005 11.0266C22.2717 11.005 21.9436 10.9776 21.6164 10.9443C21.4676 10.9288 21.3191 10.9124 21.1707 10.8941L21.0294 10.8761L20.9987 10.8717L20.8522 10.8506C20.5529 10.8055 20.2536 10.7536 19.9575 10.6909C19.9277 10.6843 19.9009 10.6677 19.8818 10.6438C19.8626 10.62 19.8522 10.5903 19.8522 10.5597C19.8522 10.5291 19.8626 10.4994 19.8818 10.4755C19.9009 10.4516 19.9277 10.435 19.9575 10.4284H19.9631C20.2197 10.3737 20.4783 10.327 20.7377 10.2863C20.8242 10.2728 20.9109 10.2594 20.9979 10.2464H21.0003C21.1627 10.2356 21.3259 10.2065 21.4875 10.1873C22.8937 10.0411 24.3082 9.99121 25.7211 10.0381C26.4071 10.058 27.0927 10.0984 27.7754 10.1678C27.9223 10.183 28.0684 10.1989 28.2144 10.2169C28.2703 10.2236 28.3266 10.2316 28.3828 10.2384L28.4961 10.2548C28.8266 10.304 29.1553 10.3637 29.4822 10.434C29.9667 10.5393 30.5887 10.5736 30.8044 11.1044C30.8728 11.2728 30.904 11.4599 30.9419 11.6367L30.9904 11.8622C30.9916 11.8662 30.9925 11.8704 30.9931 11.8746C31.1073 12.4066 31.2215 12.9387 31.3357 13.4708C31.3442 13.5101 31.3445 13.5507 31.3363 13.5901C31.3285 13.6295 31.3124 13.6668 31.2894 13.6997C31.2664 13.7326 31.2367 13.7604 31.2024 13.7814C31.1682 13.8023 31.1297 13.816 31.09 13.8215H31.0867L31.017 13.8311L30.948 13.8403C30.7293 13.8688 30.5102 13.8954 30.2911 13.9201C29.8593 13.9693 29.4269 14.0119 28.9938 14.0478C28.1331 14.1194 27.2708 14.1663 26.4067 14.1887C25.9664 14.2004 25.5263 14.2058 25.0862 14.205C23.3348 14.2037 21.5848 14.1019 19.845 13.9002C19.6566 13.8778 19.4683 13.8539 19.28 13.8295C19.426 13.8483 19.1738 13.8152 19.1227 13.808C19.003 13.7912 18.8833 13.7738 18.7636 13.7557C18.3617 13.6954 17.9623 13.6212 17.5612 13.5562C17.0763 13.4764 16.6127 13.5163 16.1741 13.7557C15.8141 13.9527 15.5227 14.2548 15.3389 14.6216C15.1497 15.0127 15.0935 15.4385 15.0089 15.8587C14.9242 16.2789 14.7926 16.7311 14.8425 17.1624C14.9498 18.0934 15.6007 18.8501 16.5368 19.0193C17.4175 19.1789 18.3031 19.3082 19.191 19.4183C22.6788 19.8455 26.2025 19.8966 29.7013 19.5708C29.9862 19.5441 30.2708 19.5152 30.5548 19.4838C30.6435 19.474 30.7335 19.4842 30.8177 19.5137C30.9019 19.5431 30.9786 19.5911 31.0419 19.654C31.1052 19.7169 31.154 19.7932 31.184 19.8772C31.2139 19.9613 31.2249 20.051 31.2158 20.1398L31.127 21.001C30.9486 22.7411 30.7702 24.4811 30.5917 26.221C30.4054 28.0482 30.2179 29.8752 30.0293 31.7019C29.9761 32.2166 29.9229 32.731 29.8697 33.2454C29.8186 33.7516 29.8114 34.2741 29.7153 34.7746C29.5636 35.5613 29.0309 36.0447 28.2535 36.2214C27.5413 36.3834 26.8138 36.4685 26.0835 36.4752C25.2738 36.4795 24.4645 36.4437 23.6548 36.4479C22.7905 36.4528 21.7317 36.3731 21.0645 35.7297C20.4783 35.1647 20.3973 34.2799 20.3175 33.515C20.2111 32.5023 20.1056 31.4896 20.001 30.4769L19.4144 24.8467L19.0349 21.2037C19.0286 21.1434 19.0222 21.084 19.0162 21.0233C18.9707 20.5888 18.663 20.1634 18.1782 20.1853C17.7631 20.2037 17.2915 20.5564 17.3401 21.0233L17.6215 23.7241L18.2033 29.3109C18.369 30.898 18.5344 32.485 18.6993 34.0724C18.7313 34.3765 18.7612 34.6816 18.7947 34.9854C18.9771 36.6473 20.2461 37.5427 21.8175 37.7948C22.7354 37.9426 23.6756 37.9729 24.6069 37.988C25.8009 38.0071 27.0069 38.0532 28.1813 37.8369C29.9216 37.5176 31.2273 36.3556 31.4136 34.5528C31.4669 34.0327 31.5202 33.5119 31.5732 32.9915C31.7501 31.2697 31.9267 29.5477 32.1033 27.8256L32.6801 22.1989L32.9449 19.6202C32.9579 19.4924 33.0121 19.3721 33.0988 19.2774C33.1857 19.1826 33.3008 19.1182 33.4269 19.0939C33.9246 18.9969 34.4002 18.8313 34.7543 18.4526C35.3177 17.8496 35.4298 17.0635 35.2305 16.271ZM16.5113 16.8273C16.5189 16.8236 16.5049 16.8887 16.4989 16.919C16.4977 16.8731 16.5001 16.8324 16.5113 16.8273ZM16.5596 17.2008C16.5636 17.198 16.5755 17.2139 16.5879 17.2331C16.5692 17.2155 16.5572 17.2024 16.5592 17.2008H16.5596ZM16.6071 17.2634C16.6242 17.2926 16.6334 17.3109 16.6071 17.2634V17.2634ZM16.7024 17.3408H16.7048C16.7048 17.3436 16.7092 17.3464 16.7108 17.3492C16.7082 17.3461 16.7052 17.3433 16.702 17.3408H16.7024ZM33.4038 17.2251C33.2251 17.3951 32.9555 17.4741 32.6895 17.5136C29.7045 17.9566 26.6761 18.1808 23.6584 18.0819C21.4987 18.008 19.3617 17.7682 17.2236 17.4661C17.0141 17.4366 16.787 17.3983 16.643 17.2439C16.3716 16.9525 16.5049 16.3659 16.5755 16.014C16.6402 15.6915 16.7639 15.2617 17.1474 15.2158C17.746 15.1456 18.4411 15.3982 19.0333 15.488C19.7463 15.5968 20.462 15.6839 21.1803 15.7494C24.2458 16.0287 27.3628 15.9852 30.4148 15.5766C30.971 15.5018 31.5254 15.415 32.0776 15.316C32.5699 15.2278 33.1151 15.0622 33.4126 15.5718C33.6165 15.919 33.6434 16.3835 33.6119 16.7758C33.6022 16.9467 33.5277 17.1074 33.4032 17.2251H33.4038Z" fill="#1A1A20"/>
<path fill-rule="evenodd" clip-rule="evenodd" d="M51.509 25.5188C51.3348 25.8514 51.0952 26.1411 50.7902 26.3869C50.4851 26.633 50.1295 26.8333 49.7226 26.9875C49.3161 27.1421 48.9069 27.2458 48.4955 27.2986C48.0838 27.3517 47.6842 27.3471 47.2974 27.2841C46.9099 27.2215 46.5804 27.0938 46.3095 26.9006L46.6149 23.7315C46.8954 23.6351 47.2486 23.5361 47.6748 23.4348C48.1008 23.3336 48.5388 23.2611 48.9893 23.2178C49.4397 23.1743 49.8653 23.1794 50.2673 23.2323C50.669 23.2853 50.9862 23.4131 51.2185 23.6158C51.3445 23.7315 51.4512 23.8569 51.5381 23.992C51.6254 24.1271 51.6784 24.267 51.6981 24.4117C51.7462 24.8169 51.6835 25.1859 51.509 25.5188ZM47.0793 18.7679C47.2825 18.6425 47.5273 18.5314 47.8127 18.4348C48.0983 18.3387 48.3913 18.2709 48.6915 18.2324C48.9914 18.194 49.2843 18.1888 49.5703 18.2179C49.8556 18.2469 50.1077 18.3264 50.3255 18.4565C50.5433 18.5869 50.7054 18.7751 50.812 19.0209C50.9183 19.2671 50.9474 19.5783 50.8989 19.9544C50.8605 20.2535 50.7414 20.5069 50.5433 20.7142C50.3449 20.9218 50.1025 21.0953 49.8172 21.2352C49.5315 21.3753 49.2289 21.4861 48.9096 21.5678C48.5897 21.6501 48.2822 21.7105 47.9872 21.7489C47.6918 21.7876 47.4352 21.8119 47.2174 21.8212C46.9996 21.8309 46.8566 21.8357 46.7888 21.8357L47.0793 18.7679ZM53.0776 23.471C52.9228 23.1335 52.7147 22.8368 52.4533 22.5809C52.1918 22.3254 51.8816 22.1397 51.5236 22.0239C51.6784 21.8985 51.831 21.7008 51.9813 21.4305C52.1312 21.1606 52.2594 20.8662 52.366 20.5478C52.4723 20.2293 52.5453 19.9087 52.5838 19.5854C52.6223 19.2623 52.6078 18.9849 52.5405 18.7532C52.3754 18.1745 52.1167 17.7211 51.7632 17.393C51.4097 17.0651 50.9983 16.8383 50.5287 16.7128C50.0589 16.5878 49.5412 16.561 48.9747 16.6333C48.4082 16.7056 47.8296 16.8479 47.2392 17.0601C47.2392 17.012 47.2441 16.9614 47.2538 16.9083C47.2632 16.8554 47.268 16.7998 47.268 16.7418C47.268 16.5971 47.1956 16.4719 47.0502 16.3656C46.9051 16.2595 46.7382 16.1969 46.5495 16.1774C46.3604 16.1583 46.1765 16.1991 45.9972 16.3004C45.8182 16.4018 45.6946 16.5878 45.627 16.8574C45.5495 17.7258 45.4719 18.628 45.3947 19.5636C45.3171 20.4995 45.2347 21.445 45.1478 22.4003C45.0606 23.3553 44.9733 24.3032 44.8864 25.2437C44.7991 26.1844 44.7119 27.0888 44.6249 27.957C44.654 28.2175 44.7264 28.4202 44.8427 28.5649C44.9588 28.7097 45.0945 28.7966 45.2493 28.8254C45.4041 28.8544 45.5664 28.8276 45.7358 28.7457C45.9051 28.664 46.0529 28.5214 46.179 28.3189C46.5661 28.5311 47.002 28.6686 47.4861 28.7314C47.9702 28.794 48.4612 28.794 48.9605 28.7314C49.4588 28.6686 49.9501 28.5506 50.4342 28.3767C50.9183 28.2032 51.3591 27.986 51.7559 27.7257C52.1531 27.4652 52.4869 27.1683 52.7583 26.8356C53.0291 26.5026 53.2085 26.1433 53.2954 25.7576C53.3826 25.362 53.4069 24.9665 53.3681 24.5709C53.3293 24.1754 53.2324 23.809 53.0776 23.471Z" fill="#1A1A20"/>
<path fill-rule="evenodd" clip-rule="evenodd" d="M67.2472 31.1115C67.1942 31.4299 67.1187 31.7653 67.0221 32.1176C66.9252 32.4693 66.8116 32.7904 66.681 33.08C66.5501 33.3693 66.405 33.6028 66.2454 33.7816C66.0854 33.96 65.9134 34.0348 65.7295 34.006C65.5844 33.9863 65.4923 33.8949 65.4538 33.731C65.4147 33.5668 65.4147 33.3641 65.4538 33.1233C65.4923 32.8819 65.5671 32.6092 65.6786 32.3054C65.7901 32.0015 65.9258 31.6998 66.0854 31.4011C66.2454 31.1018 66.4268 30.815 66.6301 30.5399C66.8334 30.2652 67.0463 30.0359 67.269 29.8527C67.3175 29.9105 67.3393 30.0552 67.3344 30.2869C67.3293 30.5184 67.3005 30.7935 67.2472 31.1115ZM72.171 24.8311C72.0401 24.6864 71.8805 24.6045 71.6915 24.5851C71.5027 24.5658 71.3113 24.6719 71.118 24.9034C70.992 25.1349 70.8321 25.3569 70.6385 25.5691C70.4449 25.7815 70.2441 25.9743 70.0359 26.148C69.8275 26.3215 69.6291 26.4713 69.4404 26.5965C69.2517 26.7221 69.1038 26.8137 68.9975 26.8715C68.9587 26.5629 68.9366 26.2301 68.9321 25.873C68.9269 25.516 68.9345 25.1544 68.9539 24.7877C68.9827 24.2667 69.0432 23.7411 69.1353 23.2103C69.2274 22.6798 69.3604 22.1587 69.5349 21.6472C69.5349 21.3774 69.4716 21.1578 69.3459 20.9889C69.2199 20.8202 69.0675 20.7139 68.8884 20.6705C68.7091 20.6272 68.5255 20.6513 68.3365 20.7429C68.1478 20.8347 67.9857 21.0012 67.85 21.2421C67.734 21.5606 67.6007 21.9175 67.4507 22.313C67.3005 22.7086 67.1312 23.1114 66.9424 23.5213C66.7534 23.9317 66.5429 24.3295 66.3105 24.7153C66.0782 25.1013 65.824 25.4439 65.548 25.7428C65.2721 26.0419 64.9719 26.2759 64.6477 26.4447C64.323 26.6136 63.9725 26.6883 63.5947 26.669C63.4203 26.6207 63.2942 26.4906 63.217 26.2782C63.1394 26.0661 63.0934 25.8006 63.0792 25.4823C63.0646 25.1639 63.0792 24.8142 63.1225 24.433C63.1661 24.0521 63.2243 23.6734 63.297 23.2972C63.3694 22.9208 63.4493 22.5639 63.5363 22.2263C63.6235 21.8887 63.7056 21.6039 63.7832 21.3724C63.8995 21.0928 63.8995 20.8585 63.7832 20.6705C63.6671 20.4823 63.5075 20.3571 63.3042 20.2942C63.101 20.2316 62.8877 20.2341 62.6651 20.3015C62.4424 20.3691 62.2825 20.5185 62.1858 20.75C62.021 21.1459 61.8708 21.5894 61.7354 22.0814C61.6 22.5735 61.4909 23.0825 61.4088 23.6082C61.3264 24.1342 61.2801 24.6552 61.2707 25.1713C61.2701 25.2049 61.2716 25.2368 61.2716 25.2702C61.0604 25.8311 60.8593 26.255 60.6681 26.5387C60.4212 26.9055 60.1426 27.0647 59.833 27.0162C59.6969 26.9584 59.6079 26.8234 59.5643 26.611C59.5203 26.3989 59.5061 26.1384 59.5203 25.8295C59.5352 25.521 59.5715 25.1713 59.6294 24.7804C59.6879 24.3897 59.76 23.9846 59.8472 23.5648C59.9344 23.145 60.0265 22.7233 60.1232 22.2986C60.2201 21.8742 60.307 21.4737 60.3849 21.0974C60.3752 20.7598 60.2758 20.5018 60.0868 20.3232C59.8984 20.1449 59.6342 20.075 59.2956 20.1133C59.0632 20.2099 58.8911 20.3355 58.78 20.4897C58.6685 20.6439 58.5788 20.8418 58.5113 21.0829C58.4722 21.2085 58.4143 21.4592 58.3368 21.8356C58.2592 22.2116 58.1602 22.6436 58.039 23.1307C57.9181 23.6181 57.7752 24.1268 57.6107 24.6574C57.4462 25.188 57.262 25.6683 57.059 26.0973C56.8555 26.5266 56.6328 26.8715 56.3908 27.132C56.1487 27.3924 55.8873 27.4987 55.6065 27.4504C55.4514 27.4214 55.3523 27.2622 55.3087 26.9729C55.2651 26.6833 55.2581 26.3266 55.2869 25.902C55.316 25.4775 55.3741 25.0119 55.4611 24.5056C55.5483 23.999 55.6377 23.5191 55.7298 23.0655C55.8219 22.6122 55.9067 22.2116 55.9842 21.8644C56.0615 21.5171 56.1148 21.2856 56.1439 21.1699C56.1439 20.8901 56.0806 20.666 55.9551 20.4969C55.8291 20.3283 55.6768 20.222 55.4974 20.1785C55.3181 20.1352 55.1342 20.1592 54.9458 20.2508C54.7568 20.3426 54.5947 20.5092 54.459 20.75C54.4105 21.0105 54.3475 21.3122 54.2703 21.6546C54.1927 21.997 54.1179 22.3491 54.0452 22.711C53.9725 23.0728 53.9046 23.4273 53.8419 23.7747C53.7789 24.1221 53.7329 24.4259 53.7038 24.6864C53.6844 24.8889 53.6626 25.1375 53.6386 25.4316C53.6141 25.7261 53.602 26.0371 53.602 26.365C53.602 26.6933 53.6262 27.0188 53.675 27.3419C53.7232 27.6652 53.8104 27.9619 53.9361 28.2318C54.0618 28.502 54.2387 28.7238 54.4665 28.8974C54.6937 29.0711 54.9818 29.1675 55.3305 29.187C55.6886 29.2061 56.0009 29.1798 56.2675 29.1073C56.5334 29.0349 56.7755 28.9215 56.9936 28.7671C57.2114 28.6131 57.4098 28.4297 57.5892 28.2172C57.7679 28.0052 57.9448 27.7737 58.119 27.5227C58.2838 27.8895 58.4967 28.1739 58.7582 28.3766C59.0196 28.5791 59.2956 28.6999 59.5861 28.7383C59.8763 28.7766 60.1719 28.7361 60.4721 28.6153C60.772 28.4948 61.0432 28.2898 61.2852 28.0002C61.4448 27.8227 61.5951 27.6209 61.7363 27.3979C61.7962 27.5023 61.8599 27.6031 61.9317 27.6962C62.1689 28.0052 62.4909 28.2172 62.8977 28.3331C63.3333 28.4489 63.7589 28.4684 64.1755 28.3911C64.5917 28.314 64.9888 28.1739 65.3663 27.9714C65.744 27.7687 66.0948 27.5253 66.4196 27.2405C66.7437 26.956 67.0269 26.6595 67.269 26.3505C67.2593 26.5725 67.2544 26.7825 67.2544 26.98C67.2544 27.1779 67.2496 27.3924 67.2402 27.624C66.7558 27.9619 66.2984 28.367 65.8676 28.8396C65.4366 29.3122 65.0588 29.8163 64.7347 30.3518C64.4102 30.8871 64.1561 31.4299 63.9725 31.9797C63.7883 32.5298 63.6986 33.0436 63.7035 33.5213C63.7083 33.9988 63.8219 34.4159 64.0449 34.7727C64.2672 35.1299 64.6305 35.3853 65.1339 35.5398C65.6571 35.7039 66.1166 35.7085 66.5141 35.5543C66.9109 35.3998 67.2569 35.1441 67.5522 34.7873C67.8476 34.4304 68.0896 33.9988 68.2786 33.4923C68.4674 32.9858 68.6173 32.4574 68.7288 31.9076C68.84 31.3578 68.9103 30.8171 68.9393 30.2869C68.9684 29.7561 68.9684 29.2832 68.9393 28.8685C69.7721 28.5213 70.4546 28.0823 70.9872 27.5515C71.5197 27.0213 71.9602 26.4616 72.3088 25.873C72.4152 25.7283 72.4515 25.5546 72.4179 25.3521C72.3837 25.1494 72.3016 24.9757 72.171 24.8311Z" fill="#1A1A20"/>
<path fill-rule="evenodd" clip-rule="evenodd" d="M90.4925 23.9053C90.5216 23.6835 90.5652 23.4494 90.623 23.2034C90.6812 22.9574 90.7539 22.7185 90.8412 22.487C90.9281 22.2555 91.0299 22.0554 91.1462 21.8865C91.2622 21.7178 91.3858 21.5972 91.5164 21.5247C91.6473 21.4525 91.7799 21.4597 91.916 21.5463C92.0611 21.6334 92.1504 21.8166 92.1846 22.0962C92.2183 22.3763 92.1846 22.6752 92.0829 22.9936C91.9811 23.3121 91.7996 23.611 91.5382 23.8908C91.2768 24.1708 90.9232 24.3538 90.4779 24.4406C90.4586 24.3059 90.4634 24.1273 90.4925 23.9053ZM95.5248 24.4985C95.3651 24.4506 95.2127 24.4456 95.0673 24.4841C94.9222 24.5227 94.8301 24.624 94.7917 24.7882C94.7138 25.0968 94.5902 25.4127 94.4209 25.7359C94.2515 26.0592 94.0434 26.3654 93.7968 26.6549C93.55 26.9443 93.2713 27.2 92.9617 27.4218C92.6515 27.6438 92.3273 27.8029 91.9883 27.8993C91.6494 28.0056 91.3686 28.0176 91.1462 27.9355C90.9232 27.8538 90.7466 27.7137 90.6161 27.516C90.4852 27.3183 90.3907 27.0794 90.3328 26.7996C90.2747 26.5198 90.2407 26.2305 90.231 25.9312C90.783 25.97 91.2743 25.8712 91.7054 25.6346C92.1359 25.3985 92.5015 25.0847 92.8017 24.694C93.1016 24.3033 93.3294 23.8644 93.4842 23.3771C93.639 22.89 93.7263 22.4052 93.7457 21.9227C93.7553 21.4692 93.6878 21.0859 93.5424 20.7723C93.3973 20.4589 93.201 20.2149 92.9541 20.0414C92.7075 19.8678 92.424 19.7664 92.1047 19.7376C91.7854 19.7086 91.4606 19.7521 91.1314 19.8678C90.7342 20.0029 90.398 20.2223 90.122 20.5263C89.846 20.8301 89.6161 21.1824 89.4322 21.5827C89.2483 21.9831 89.1029 22.4147 88.9966 22.8777C88.89 23.3409 88.8124 23.7968 88.7643 24.2455C88.7206 24.6481 88.6973 25.0331 88.6891 25.4047C88.6682 25.4519 88.6482 25.4972 88.6261 25.5477C88.4759 25.8905 88.3014 26.2257 88.1033 26.5536C87.9049 26.8817 87.6843 27.1567 87.4426 27.3785C87.2005 27.6004 86.9488 27.6775 86.6874 27.61C86.5323 27.5716 86.4478 27.3928 86.4332 27.0746C86.4187 26.7561 86.4353 26.3606 86.4838 25.8879C86.5323 25.4153 86.588 24.9037 86.651 24.3538C86.7137 23.8039 86.7452 23.2783 86.7452 22.7766C86.7452 22.3424 86.6628 21.9253 86.4983 21.5247C86.3336 21.1246 86.1085 20.7916 85.8231 20.5263C85.5375 20.2608 85.2057 20.0848 84.8283 19.9981C84.4505 19.9111 84.044 19.9691 83.6084 20.1716C83.1725 20.3743 82.8262 20.6588 82.57 21.0255C82.3131 21.3923 82.0783 21.778 81.8653 22.1832C81.7878 21.8744 81.6742 21.5876 81.5239 21.3222C81.374 21.0569 81.1901 20.8254 80.9723 20.6275C80.7542 20.4299 80.5094 20.2755 80.2389 20.1644C79.9678 20.0537 79.6818 19.9981 79.3816 19.9981C79.0914 19.9981 78.8227 20.0537 78.5758 20.1644C78.3289 20.2755 78.1038 20.4176 77.9003 20.5913C77.697 20.7651 77.5131 20.9603 77.3483 21.1775C77.1838 21.3945 77.0384 21.6093 76.9127 21.8214C76.893 21.5706 76.8715 21.3512 76.8476 21.1628C76.8231 20.9748 76.7794 20.8156 76.7167 20.6855C76.6537 20.5551 76.5644 20.4564 76.448 20.3888C76.3317 20.3214 76.1672 20.2874 75.9543 20.2874C75.8476 20.2874 75.741 20.3091 75.6347 20.3524C75.528 20.396 75.4335 20.4564 75.3514 20.5335C75.269 20.6109 75.2063 20.7047 75.1627 20.8156C75.1191 20.9265 75.1073 21.0545 75.1263 21.1991C75.136 21.3054 75.1627 21.4331 75.2063 21.5827C75.2496 21.7323 75.2908 21.9278 75.3296 22.1687C75.3684 22.41 75.3999 22.7019 75.4241 23.0443C75.4484 23.3868 75.4553 23.8065 75.4459 24.3033C75.4359 24.8003 75.3999 25.3814 75.3369 26.0471C75.2739 26.7128 75.1745 27.4846 75.0391 28.3623C75.0197 28.565 75.0973 28.7292 75.2718 28.8546C75.4459 28.9798 75.6444 29.0521 75.867 29.0715C76.0897 29.0908 76.3005 29.0521 76.4989 28.9559C76.6973 28.8591 76.8112 28.6904 76.84 28.4494C76.8691 27.9959 76.9248 27.5136 77.0072 27.0021C77.0893 26.491 77.1911 25.9845 77.3123 25.4827C77.4332 24.9811 77.571 24.5036 77.7261 24.05C77.8809 23.5965 78.053 23.1963 78.2417 22.8489C78.4307 22.5016 78.6267 22.2243 78.83 22.0169C79.0332 21.8094 79.2462 21.7057 79.4692 21.7057C79.74 21.7057 79.9505 21.8285 80.1008 22.0745C80.2507 22.3207 80.357 22.6368 80.4204 23.0224C80.4831 23.4085 80.5121 23.8308 80.5076 24.2888C80.5024 24.7471 80.4831 25.1884 80.4494 25.6129C80.4155 26.0375 80.3767 26.4161 80.3331 26.7489C80.2895 27.0818 80.258 27.3111 80.2389 27.4363C80.2389 27.6583 80.3234 27.8342 80.4928 27.9645C80.6621 28.0947 80.8508 28.172 81.0592 28.196C81.2677 28.2202 81.4633 28.1815 81.6475 28.0802C81.8314 27.9788 81.938 27.8079 81.9671 27.5665C82.0637 26.8719 82.197 26.175 82.3664 25.4755C82.5357 24.7761 82.7296 24.1491 82.9474 23.5943C83.1652 23.0395 83.4072 22.586 83.6735 22.2339C83.9398 21.8819 84.223 21.7057 84.5232 21.7057C84.678 21.7057 84.7968 21.812 84.8789 22.024C84.9613 22.2363 85.0025 22.5256 85.0025 22.8922C85.0025 23.1625 84.9807 23.4399 84.9373 23.7245C84.8934 24.009 84.8428 24.3033 84.7847 24.6072C84.7265 24.9112 84.6756 25.2222 84.632 25.5406C84.5887 25.8591 84.5669 26.1917 84.5669 26.5391C84.5669 26.7803 84.5911 27.0601 84.6396 27.3785C84.6877 27.6966 84.7795 27.9985 84.9152 28.2828C85.0509 28.5676 85.2372 28.8087 85.4747 29.0064C85.7119 29.2041 86.0143 29.3031 86.382 29.3031C86.9343 29.3031 87.4229 29.1848 87.8491 28.9485C88.275 28.7123 88.6407 28.4036 88.9457 28.0225C88.9615 28.0025 88.976 27.9812 88.9915 27.9614C89.0148 28.0177 89.0354 28.0774 89.0617 28.131C89.2699 28.5555 89.5531 28.8834 89.9115 29.1151C90.2695 29.3466 90.6909 29.4743 91.1753 29.4986C91.6591 29.5225 92.1868 29.4332 92.7584 29.2307C93.184 29.0763 93.5545 28.8834 93.8692 28.6519C94.1837 28.4204 94.4669 28.1382 94.7187 27.8053C94.9707 27.4725 95.2003 27.089 95.4087 26.6549C95.6171 26.2206 95.8274 25.7239 96.0403 25.1642C96.0791 25.0102 96.0428 24.8726 95.9316 24.7518C95.8201 24.6314 95.6847 24.5469 95.5248 24.4985Z" fill="#1A1A20"/>
<path fill-rule="evenodd" clip-rule="evenodd" d="M103.418 22.8843C103.37 23.169 103.305 23.4828 103.222 23.825C103.14 24.1676 103.036 24.5221 102.91 24.8887C102.784 25.2553 102.629 25.5858 102.445 25.8799C102.261 26.1744 102.05 26.4081 101.814 26.5818C101.576 26.7555 101.303 26.8278 100.993 26.7988C100.838 26.7797 100.719 26.6736 100.637 26.4805C100.555 26.2877 100.511 26.0415 100.506 25.7424C100.501 25.4435 100.528 25.1154 100.586 24.7584C100.644 24.4017 100.734 24.0517 100.855 23.7092C100.976 23.3669 101.124 23.0508 101.298 22.7613C101.472 22.4719 101.673 22.2476 101.901 22.0884C102.128 21.9292 102.378 21.8547 102.648 21.8641C102.92 21.8738 103.21 22.0087 103.52 22.2692C103.5 22.3948 103.467 22.5999 103.418 22.8843ZM108.581 23.9913C108.431 23.9142 108.276 23.8975 108.117 23.9408C107.957 23.9842 107.843 24.1314 107.776 24.3822C107.737 24.6525 107.65 24.9706 107.514 25.3372C107.378 25.7039 107.211 26.0514 107.013 26.3791C106.814 26.7072 106.587 26.9798 106.33 27.1968C106.074 27.414 105.8 27.513 105.51 27.4933C105.268 27.4742 105.098 27.3512 105.002 27.1245C104.904 26.8978 104.854 26.6134 104.849 26.2706C104.844 25.9284 104.878 25.5425 104.95 25.1131C105.023 24.6838 105.11 24.257 105.212 23.8321C105.314 23.4079 105.418 23.0001 105.524 22.6094C105.631 22.2188 105.718 21.8883 105.786 21.6182C105.863 21.377 105.839 21.1721 105.713 21.003C105.587 20.8345 105.43 20.7137 105.241 20.6414C105.052 20.569 104.861 20.5497 104.667 20.5835C104.474 20.6173 104.348 20.721 104.29 20.8945C103.718 20.4025 103.169 20.1372 102.642 20.0987C102.114 20.0601 101.627 20.1759 101.182 20.446C100.736 20.7161 100.342 21.1067 99.9981 21.6182C99.6543 22.1297 99.3759 22.6867 99.1627 23.2897C98.9497 23.8926 98.8167 24.5078 98.7634 25.1347C98.7101 25.7619 98.7513 26.3336 98.887 26.8497C99.0227 27.3657 99.262 27.788 99.6059 28.1157C99.9494 28.4438 100.417 28.6079 101.008 28.6079C101.269 28.6079 101.521 28.5549 101.763 28.4487C102.004 28.3424 102.227 28.2171 102.431 28.0724C102.634 27.9277 102.813 27.7757 102.968 27.6165C103.123 27.4573 103.244 27.3248 103.331 27.2185C103.399 27.5659 103.51 27.8603 103.665 28.1014C103.82 28.3424 103.997 28.5405 104.195 28.6946C104.394 28.8488 104.602 28.9622 104.82 29.0348C105.038 29.1071 105.249 29.1433 105.451 29.1433C105.907 29.1433 106.332 28.9889 106.73 28.6801C107.127 28.3716 107.483 27.9927 107.797 27.5442C108.112 27.0955 108.371 26.6229 108.574 26.1259C108.778 25.6292 108.913 25.1878 108.981 24.8017C109.049 24.657 109.036 24.5052 108.945 24.346C108.852 24.1868 108.732 24.0688 108.581 23.9913Z" fill="#1A1A20"/>
<path fill-rule="evenodd" clip-rule="evenodd" d="M134.725 31.9806C134.642 32.3084 134.514 32.5862 134.34 32.8128C134.165 33.0393 133.948 33.1575 133.686 33.1675C133.522 33.1769 133.396 33.0899 133.308 32.907C133.221 32.7234 133.161 32.4871 133.127 32.1978C133.093 31.9082 133.078 31.585 133.083 31.2281C133.088 30.8713 133.103 30.519 133.127 30.1717C133.151 29.8245 133.18 29.501 133.214 29.2022C133.248 28.9029 133.274 28.6718 133.294 28.5076C133.623 28.5462 133.897 28.6883 134.114 28.9345C134.332 29.1805 134.499 29.4722 134.615 29.81C134.732 30.1476 134.799 30.512 134.819 30.9025C134.838 31.2933 134.807 31.6525 134.725 31.9806ZM129.467 31.9806C129.385 32.3084 129.256 32.5862 129.082 32.8128C128.908 33.0393 128.69 33.1575 128.428 33.1675C128.264 33.1769 128.138 33.0899 128.051 32.907C127.964 32.7234 127.903 32.4871 127.87 32.1978C127.835 31.9082 127.821 31.585 127.826 31.2281C127.83 30.8713 127.845 30.519 127.87 30.1717C127.893 29.8245 127.923 29.501 127.956 29.2022C127.99 28.9029 128.017 28.6718 128.036 28.5076C128.365 28.5462 128.639 28.6883 128.857 28.9345C129.075 29.1805 129.242 29.4722 129.358 29.81C129.474 30.1476 129.542 30.512 129.561 30.9025C129.58 31.2933 129.549 31.6525 129.467 31.9806ZM124.072 23.761C124.062 23.9924 124.04 24.1974 124.006 24.3759C123.972 24.5547 123.926 24.6678 123.868 24.7161C123.761 24.6581 123.631 24.5088 123.476 24.2674C123.321 24.0264 123.2 23.7535 123.113 23.4497C123.026 23.1458 122.999 22.847 123.033 22.5525C123.067 22.2584 123.219 22.0294 123.49 21.8651C123.597 21.8073 123.689 21.8289 123.766 21.9303C123.844 22.0316 123.907 22.1787 123.955 22.3716C124.004 22.5648 124.037 22.7866 124.057 23.0373C124.076 23.2883 124.081 23.5294 124.072 23.761ZM122.786 26.648C122.636 26.807 122.469 26.9445 122.285 27.0604C122.101 27.1762 121.912 27.263 121.719 27.3209C121.525 27.3789 121.35 27.3932 121.196 27.3642C120.76 27.2776 120.426 27.0892 120.194 26.7999C119.961 26.5105 119.813 26.1705 119.751 25.7798C119.688 25.389 119.695 24.9716 119.773 24.5279C119.85 24.0842 119.98 23.6718 120.164 23.2907C120.348 22.9095 120.571 22.5815 120.832 22.3066C121.094 22.0316 121.38 21.8605 121.689 21.7928C121.573 22.2848 121.535 22.7939 121.573 23.3195C121.612 23.8453 121.738 24.3397 121.951 24.8027C122.086 25.0829 122.249 25.3383 122.437 25.5698C122.626 25.8015 122.856 25.9992 123.127 26.1632C123.05 26.3273 122.936 26.4888 122.786 26.648ZM138.856 23.9057C138.886 23.684 138.929 23.4497 138.987 23.2037C139.045 22.9578 139.118 22.719 139.205 22.4875C139.292 22.2558 139.394 22.0557 139.51 21.8869C139.627 21.7182 139.75 21.5974 139.88 21.5251C140.011 21.4527 140.144 21.4599 140.28 21.5467C140.425 21.6338 140.514 21.817 140.548 22.0966C140.582 22.3766 140.548 22.6755 140.447 22.994C140.345 23.3123 140.164 23.6114 139.902 23.891C139.641 24.1712 139.287 24.3542 138.842 24.4411C138.823 24.3061 138.827 24.1277 138.856 23.9057ZM144.71 23.9057C144.739 23.684 144.782 23.4497 144.84 23.2037C144.898 22.9578 144.971 22.719 145.058 22.4875C145.145 22.2558 145.247 22.0557 145.363 21.8869C145.479 21.7182 145.603 21.5974 145.734 21.5251C145.864 21.4527 145.997 21.4599 146.133 21.5467C146.278 21.6338 146.368 21.817 146.402 22.0966C146.436 22.3766 146.402 22.6755 146.3 22.994C146.198 23.3123 146.017 23.6114 145.755 23.891C145.494 24.1712 145.14 24.3542 144.695 24.4411C144.676 24.3061 144.681 24.1277 144.71 23.9057ZM150.149 24.7523C150.037 24.6318 149.902 24.5474 149.742 24.4989C149.582 24.4508 149.43 24.446 149.285 24.4846C149.139 24.5231 149.047 24.6245 149.009 24.7884C148.931 25.0972 148.808 25.4132 148.638 25.7361C148.469 26.0596 148.261 26.3659 148.014 26.6552C147.767 26.9445 147.488 27.2005 147.179 27.4222C146.869 27.6442 146.545 27.8034 146.206 27.8996C145.867 28.006 145.586 28.018 145.363 27.9359C145.14 27.854 144.964 27.7141 144.833 27.5164C144.702 27.3185 144.608 27.0798 144.55 26.7999C144.492 26.5203 144.458 26.2309 144.448 25.9317C145 25.9704 145.492 25.8716 145.922 25.635C146.353 25.3987 146.719 25.0849 147.019 24.6943C147.319 24.3037 147.547 23.8648 147.701 23.3775C147.856 22.8903 147.943 22.4056 147.963 21.9231C147.973 21.4697 147.905 21.0861 147.76 20.7726C147.615 20.4592 147.419 20.2153 147.172 20.0419C146.924 19.868 146.641 19.7668 146.322 19.7378C146.002 19.7088 145.678 19.7525 145.349 19.868C144.951 20.0033 144.615 20.2227 144.34 20.5265C144.064 20.8306 143.833 21.1829 143.649 21.5829C143.465 21.9835 143.32 22.4149 143.214 22.8782C143.107 23.3412 143.03 23.7972 142.981 24.2457C142.934 24.681 142.909 25.0976 142.903 25.4964C142.866 25.5758 142.827 25.6557 142.785 25.7361C142.616 26.0596 142.407 26.3659 142.161 26.6552C141.914 26.9445 141.635 27.2005 141.326 27.4222C141.016 27.6442 140.691 27.8034 140.353 27.8996C140.013 28.006 139.733 28.018 139.51 27.9359C139.287 27.854 139.111 27.7141 138.98 27.5164C138.85 27.3185 138.755 27.0798 138.697 26.7999C138.639 26.5203 138.605 26.2309 138.595 25.9317C139.147 25.9704 139.638 25.8716 140.069 25.635C140.5 25.3987 140.866 25.0849 141.166 24.6943C141.466 24.3037 141.693 23.8648 141.848 23.3775C142.003 22.8903 142.091 22.4056 142.11 21.9231C142.119 21.4697 142.052 21.0861 141.907 20.7726C141.761 20.4592 141.565 20.2153 141.318 20.0419C141.071 19.868 140.788 19.7668 140.469 19.7378C140.149 19.7088 139.825 19.7525 139.496 19.868C139.098 20.0033 138.762 20.2227 138.486 20.5265C138.21 20.8306 137.98 21.1829 137.796 21.5829C137.612 21.9835 137.467 22.4149 137.361 22.8782C137.254 23.3412 137.176 23.7972 137.128 24.2457C137.101 24.4987 137.083 24.744 137.069 24.9849C136.975 25.0642 136.884 25.144 136.787 25.2224C136.453 25.4927 136.102 25.7361 135.734 25.9533C135.366 26.1705 134.983 26.3489 134.587 26.4888C134.189 26.6287 133.783 26.7132 133.366 26.742L134.267 17.133C134.325 16.9303 134.296 16.7521 134.18 16.5977C134.064 16.4433 133.914 16.3372 133.73 16.2793C133.546 16.2213 133.35 16.2263 133.141 16.2937C132.933 16.3614 132.762 16.5158 132.626 16.7567C132.558 17.1235 132.488 17.625 132.415 18.2617C132.343 18.8984 132.27 19.5932 132.197 20.3457C132.125 21.0982 132.052 21.8748 131.98 22.6755C131.907 23.4765 131.844 24.2241 131.791 24.9186C131.788 24.9494 131.786 24.9773 131.784 25.0078C131.699 25.0794 131.617 25.1516 131.529 25.2224C131.195 25.4927 130.844 25.7361 130.476 25.9533C130.108 26.1705 129.726 26.3489 129.329 26.4888C128.932 26.6287 128.525 26.7132 128.109 26.742L129.009 17.133C129.068 16.9303 129.039 16.7521 128.923 16.5977C128.806 16.4433 128.656 16.3372 128.472 16.2793C128.288 16.2213 128.092 16.2263 127.884 16.2937C127.676 16.3614 127.504 16.5158 127.368 16.7567C127.3 17.1235 127.23 17.625 127.158 18.2617C127.085 18.8984 127.013 19.5932 126.94 20.3457C126.867 21.0982 126.795 21.8748 126.722 22.6755C126.65 23.4765 126.586 24.2241 126.533 24.9186C126.532 24.9325 126.531 24.9452 126.53 24.9592C126.378 25.0295 126.212 25.0912 126.032 25.143C125.848 25.1962 125.64 25.2276 125.408 25.2371C125.446 25.0633 125.478 24.8703 125.502 24.6581C125.526 24.446 125.546 24.2241 125.56 23.9924C125.575 23.761 125.579 23.5294 125.575 23.2978C125.57 23.0662 125.558 22.8541 125.538 22.661C125.49 22.2464 125.4 21.8532 125.27 21.4816C125.139 21.1104 124.962 20.7994 124.74 20.5482C124.517 20.2974 124.239 20.1285 123.904 20.0419C123.57 19.955 123.18 19.9838 122.735 20.1285C122.077 20.0419 121.484 20.1023 120.956 20.3095C120.428 20.5172 119.971 20.8184 119.583 21.2139C119.196 21.6097 118.879 22.0749 118.632 22.6105C118.385 23.1458 118.221 23.6959 118.138 24.2601C118.104 24.4993 118.087 24.7374 118.082 24.975C117.932 25.2808 117.767 25.5481 117.587 25.7725C117.33 26.0908 117.064 26.3513 116.788 26.5539C116.512 26.7565 116.238 26.9109 115.967 27.017C115.696 27.1233 115.454 27.1957 115.241 27.2341C114.989 27.2823 114.747 27.2873 114.515 27.2486C114.282 27.2102 114.069 27.0991 113.876 26.9157C113.721 26.7807 113.602 26.5636 113.52 26.2645C113.438 25.9654 113.389 25.6256 113.375 25.2443C113.36 24.8631 113.375 24.4651 113.418 24.0504C113.462 23.6357 113.537 23.2424 113.643 22.871C113.75 22.4996 113.885 22.1668 114.05 21.8722C114.214 21.5783 114.408 21.3683 114.631 21.2429C114.757 21.2624 114.834 21.3369 114.864 21.4671C114.893 21.5974 114.9 21.7518 114.885 21.9303C114.871 22.1089 114.849 22.2921 114.82 22.4801C114.791 22.6683 114.776 22.8253 114.776 22.9505C114.825 23.211 114.919 23.4137 115.06 23.5584C115.2 23.703 115.357 23.7877 115.531 23.8115C115.706 23.8358 115.877 23.7948 116.047 23.6885C116.216 23.5826 116.354 23.4137 116.461 23.182C116.471 23.1917 116.485 23.1965 116.504 23.1965L116.708 21.3588C116.766 21.1078 116.727 20.886 116.592 20.6931C116.456 20.5001 116.277 20.389 116.054 20.3602C115.774 19.955 115.393 19.7404 114.914 19.7162C114.435 19.6921 113.944 19.8489 113.44 20.1865C113.13 20.4087 112.857 20.7147 112.619 21.1054C112.382 21.4963 112.189 21.9303 112.039 22.4078C111.888 22.8853 111.782 23.3897 111.719 23.9202C111.656 24.4508 111.644 24.9671 111.682 25.4685C111.721 25.9704 111.811 26.4431 111.951 26.8867C112.092 27.3306 112.288 27.702 112.54 28.0009C112.753 28.2614 112.994 28.4522 113.266 28.5728C113.537 28.6934 113.82 28.768 114.115 28.797C114.411 28.8258 114.704 28.8137 114.994 28.7608C115.285 28.7079 115.561 28.6332 115.822 28.5364C116.161 28.4112 116.51 28.2519 116.868 28.0589C117.226 27.8661 117.57 27.6345 117.899 27.3642C118.072 27.2221 118.239 27.0672 118.4 26.901C118.473 27.0824 118.555 27.2579 118.654 27.4222C118.916 27.8562 119.269 28.2085 119.714 28.4786C120.159 28.7487 120.707 28.8787 121.355 28.8693C122.053 28.8596 122.696 28.6837 123.287 28.3411C123.878 27.9989 124.362 27.4944 124.74 26.8289C125.305 26.8289 125.862 26.736 126.409 26.5515C126.404 26.6098 126.399 26.6713 126.395 26.7277C126.357 27.239 126.337 27.5862 126.337 27.7696C126.328 28.0879 126.306 28.481 126.272 28.9488C126.238 29.4168 126.216 29.9088 126.206 30.4248C126.197 30.9409 126.216 31.462 126.265 31.9879C126.313 32.5135 126.415 32.9912 126.57 33.4207C126.724 33.8497 126.944 34.2141 127.23 34.5134C127.516 34.8121 127.891 34.9908 128.356 35.0487C128.85 35.1159 129.276 35.0293 129.634 34.7882C129.992 34.5467 130.283 34.2165 130.506 33.797C130.728 33.3771 130.885 32.8924 130.978 32.3426C131.069 31.7925 131.096 31.2402 131.058 30.6853C131.018 30.1306 130.917 29.6073 130.752 29.1155C130.588 28.6233 130.36 28.2181 130.07 27.8996C130.244 27.8516 130.452 27.76 130.694 27.6247C130.936 27.4898 131.185 27.3378 131.442 27.1689C131.505 27.1274 131.567 27.0837 131.63 27.0411C131.607 27.3829 131.595 27.6267 131.595 27.7696C131.585 28.0879 131.563 28.481 131.529 28.9488C131.496 29.4168 131.474 29.9088 131.464 30.4248C131.454 30.9409 131.474 31.462 131.522 31.9879C131.57 32.5135 131.672 32.9912 131.827 33.4207C131.982 33.8497 132.202 34.2141 132.488 34.5134C132.773 34.8121 133.149 34.9908 133.614 35.0487C134.107 35.1159 134.533 35.0293 134.891 34.7882C135.25 34.5467 135.54 34.2165 135.763 33.797C135.986 33.3771 136.143 32.8924 136.235 32.3426C136.327 31.7925 136.353 31.2402 136.315 30.6853C136.276 30.1306 136.174 29.6073 136.01 29.1155C135.845 28.6233 135.618 28.2181 135.327 27.8996C135.502 27.8516 135.71 27.76 135.952 27.6247C136.194 27.4898 136.443 27.3378 136.7 27.1689C136.833 27.0811 136.966 26.9906 137.098 26.8975C137.148 27.3693 137.255 27.7832 137.426 28.1313C137.634 28.5559 137.917 28.8838 138.275 29.1155C138.634 29.3468 139.055 29.4748 139.539 29.4988C140.023 29.5227 140.551 29.4337 141.122 29.231C141.548 29.0767 141.919 28.8838 142.233 28.6523C142.548 28.4206 142.831 28.1384 143.083 27.8057C143.098 27.7865 143.111 27.7655 143.125 27.7461C143.17 27.8812 143.22 28.011 143.279 28.1313C143.487 28.5559 143.771 28.8838 144.129 29.1155C144.487 29.3468 144.908 29.4748 145.392 29.4988C145.876 29.5227 146.404 29.4337 146.975 29.231C147.402 29.0767 147.772 28.8838 148.086 28.6523C148.401 28.4206 148.684 28.1384 148.936 27.8057C149.188 27.4727 149.418 27.0892 149.626 26.6552C149.834 26.221 150.045 25.7244 150.258 25.1646C150.296 25.0104 150.26 24.8729 150.149 24.7523Z" fill="#1A1A20"/>
</svg>
