<svg width="18" height="17" viewBox="0 0 18 17" fill="none" xmlns="http://www.w3.org/2000/svg">
<path d="M1.34877 2.3816H16.6512C17.3869 2.3816 18 1.84032 18 1.1908C18 0.541272 17.3869 0 16.6512 0H1.34877C0.613079 0 0 0.541272 0 1.1908C0 1.84032 0.588556 2.3816 1.34877 2.3816Z" fill="white"/>
<path d="M1.34877 9.3816H16.6512C17.3869 9.3816 18 8.84032 18 8.1908C18 7.54127 17.3869 7 16.6512 7H1.34877C0.613079 7 0 7.54127 0 8.1908C0 8.84032 0.588556 9.3816 1.34877 9.3816Z" fill="white"/>
<path d="M1.34877 16.3816H16.6512C17.3869 16.3816 18 15.8403 18 15.1908C18 14.5413 17.3869 14 16.6512 14H1.34877C0.613079 14 0 14.5413 0 15.1908C0 15.8403 0.588556 16.3816 1.34877 16.3816Z" fill="white"/>
</svg>
